<svg xmlns="http://www.w3.org/2000/svg" viewBox="0 0 96 96" fill="none">
  <rect width="96" height="96" rx="18" fill="#123D2D"/>
  <path d="M48 17C56 25.2 58.1 35.1 48 46.8C37.9 35.1 40 25.2 48 17Z" fill="#FFF5DF"/>
  <path d="M28 34C38.8 33.2 45.3 38.2 48.8 49C37.5 51.7 30.3 47.5 28 34Z" fill="#89A77F"/>
  <path d="M68 34C57.2 33.2 50.7 38.2 47.2 49C58.5 51.7 65.7 47.5 68 34Z" fill="#D6B35F"/>
  <path d="M27 63C37.5 54 58.5 54 69 63C64.4 74 55.7 80 48 80C40.3 80 31.6 74 27 63Z" fill="#F4EFE4"/>
  <path d="M35 61C37.3 52.6 42.4 48.4 48 48.4C53.6 48.4 58.7 52.6 61 61" stroke="#B97856" stroke-width="5" stroke-linecap="round"/>
</svg>
